<?xml version="1.0" encoding="UTF-8" standalone="no"?>
<!DOCTYPE svg PUBLIC "-//W3C//DTD SVG 1.1//EN" "http://www.w3.org/Graphics/SVG/1.1/DTD/svg11.dtd">
<svg width="100%" height="100%" viewBox="0 0 1500 1500" version="1.1" xmlns="http://www.w3.org/2000/svg" xmlns:xlink="http://www.w3.org/1999/xlink" xml:space="preserve" xmlns:serif="http://www.serif.com/" style="fill-rule:evenodd;clip-rule:evenodd;stroke-linejoin:round;stroke-miterlimit:2;">
    <g transform="matrix(1,0,0,1,-35622.1,-17395.1)">
        <g id="Yellow-with-nothing" serif:id="Yellow with nothing" transform="matrix(1.38889,0,0,1.38889,35622.1,17395.1)">
            <rect x="0" y="0" width="1080" height="1080" style="fill:none;"/>
            <g id="Cube" transform="matrix(0.72,0,0,0.72,200.427,209.681)">
                <g transform="matrix(1.39394,0,0,1.39394,224.317,-254.921)">
                    <path d="M149.098,175.532C165.745,165.921 186.255,165.921 202.902,175.532C260.697,208.9 396.144,287.1 453.939,320.468C470.586,330.079 480.841,347.842 480.841,367.064L480.841,656.936C480.841,676.158 470.586,693.921 453.939,703.532C396.144,736.9 260.697,815.1 202.902,848.468C186.255,858.079 165.745,858.079 149.098,848.468C91.303,815.1 -44.144,736.9 -101.939,703.532C-118.586,693.921 -128.841,676.158 -128.841,656.936L-128.841,367.064C-128.841,347.842 -118.586,330.079 -101.939,320.468C-44.144,287.1 91.303,208.9 149.098,175.532Z"/>
                    <clipPath id="_clip1">
                        <path d="M149.098,175.532C165.745,165.921 186.255,165.921 202.902,175.532C260.697,208.9 396.144,287.1 453.939,320.468C470.586,330.079 480.841,347.842 480.841,367.064L480.841,656.936C480.841,676.158 470.586,693.921 453.939,703.532C396.144,736.9 260.697,815.1 202.902,848.468C186.255,858.079 165.745,858.079 149.098,848.468C91.303,815.1 -44.144,736.9 -101.939,703.532C-118.586,693.921 -128.841,676.158 -128.841,656.936L-128.841,367.064C-128.841,347.842 -118.586,330.079 -101.939,320.468C-44.144,287.1 91.303,208.9 149.098,175.532Z"/>
                    </clipPath>
                    <g clip-path="url(#_clip1)">
                        <g transform="matrix(0.522118,0,0,0.522118,-1926.2,-552.164)">
                            <path d="M4100.61,2440.27L4100.61,2136.18C4100.61,2095.06 4122.55,2057.06 4158.16,2036.5L4303.5,1952.59L4262.16,2328.67C4239.77,2301.08 4240.25,2300.4 4237.26,2299.23C4229.36,2296.13 4216.15,2306.1 4211.76,2318.52C4204.63,2338.72 4197.67,2358.91 4190.55,2379.12C4189.99,2380.69 4188.82,2382.22 4187.49,2383.09L4100.61,2440.27ZM4333.29,1935.39L4469.75,1856.61C4481.22,1849.99 4495.34,1849.98 4506.81,1856.6C4518.28,1863.22 4525.35,1875.45 4525.35,1888.69L4525.51,2247.39C4525.53,2289.54 4503.06,2328.49 4466.56,2349.56L4359.51,2411.36C4363.04,2409.32 4370.72,2403.98 4376.3,2393.02C4381.05,2383.69 4379.3,2396.61 4418.23,2221.65C4436.57,2265.88 4436.46,2260.47 4445.56,2255.2C4450.13,2252.55 4520.12,2198.51 4519.98,2198.14C4519.98,2198.14 4463.48,2226.59 4454.24,2231.25C4453.46,2231.64 4452.77,2231.53 4452.48,2230.95C4430.2,2188.12 4430.62,2187.56 4428.41,2186.15C4422.96,2182.68 4412.17,2187.98 4405.7,2199.02C4403.06,2203.53 4403.54,2203.61 4373.32,2288.58L4333.29,1935.39ZM4359.51,2411.36L4125.98,2546.19C4120.75,2549.21 4114.3,2549.21 4109.07,2546.19C4103.84,2543.17 4100.61,2537.59 4100.61,2531.55L4100.61,2440.27C4101.67,2440.38 4188.35,2405.93 4195.89,2402.21C4196.45,2401.93 4202.25,2399.35 4206.86,2391.93C4212.8,2382.38 4212.65,2378.1 4224.65,2346.9C4236.3,2367.01 4247.3,2396.28 4258.96,2416.39C4259.41,2417.19 4260.24,2417.55 4260.96,2418.03C4261,2418.05 4263.39,2418.99 4263.44,2419C4276.74,2421.39 4294.13,2402.67 4296.67,2385.35C4298.51,2372.86 4300.15,2360.44 4301.89,2347.98C4310.88,2283.75 4310.98,2283.71 4311.71,2278.15C4313.38,2265.41 4314.75,2252.8 4316.43,2240.07C4318.35,2257.55 4319.69,2275.43 4321.61,2292.91C4323.46,2309.75 4336.55,2399.42 4337.4,2404.12C4339.44,2415.39 4349.22,2416.55 4357.81,2412.27C4358.11,2412.12 4358.7,2411.83 4359.51,2411.36Z" style="fill:rgb(239,205,95);"/>
                        </g>
                        <g transform="matrix(-0.506907,0,0,0.506907,2215.43,-511.321)">
                            <path d="M4525.51,2246.22C4525.53,2289.09 4502.67,2328.71 4465.54,2350.15C4374.94,2402.45 4206.21,2499.87 4134.39,2541.34C4127.42,2545.36 4118.84,2545.36 4111.87,2541.34C4104.9,2537.32 4100.61,2529.88 4100.61,2521.84C4100.61,2438.38 4100.61,2241.61 4100.61,2137.32C4100.61,2095.5 4122.93,2056.84 4159.15,2035.93C4240.87,1988.75 4388.16,1903.71 4468.79,1857.16C4480.45,1850.43 4494.82,1850.42 4506.49,1857.16C4518.16,1863.89 4525.35,1876.33 4525.35,1889.8C4525.4,1982.47 4525.47,2151.41 4525.51,2246.22Z" style="fill:white;"/>
                        </g>
                    </g>
                </g>
                <g id="M" transform="matrix(0.637479,-0.368048,0.637479,0.368048,-7755.27,1100.05)">
                    <path d="M7390.4,5133.52C7382.5,5120.61 7377.95,5105.44 7377.95,5089.22C7377.95,5042.27 7416.06,5004.16 7463,5004.16C7478.97,5004.16 7493.91,5008.57 7506.68,5016.23L7506.63,5014.43C7561.51,5052.56 7589.32,5131.96 7628.72,5127.65C7658.46,5124.4 7696.09,5047.87 7749.65,5014.43L7749.64,5014.93C7761.9,5008.07 7776.04,5004.16 7791.08,5004.16C7838.02,5004.16 7876.14,5042.27 7876.14,5089.22C7876.14,5111.15 7867.81,5131.16 7854.15,5146.26C7854.61,5146.34 7854.82,5146.4 7854.78,5146.45C7815.29,5190.04 7794.02,5267.34 7864.56,5372.1L7862.39,5372.17C7871.08,5385.51 7876.14,5401.43 7876.14,5418.52C7876.14,5465.46 7838.02,5503.58 7791.08,5503.58C7744.13,5503.58 7706.02,5465.46 7706.02,5418.52C7706.02,5394.2 7716.25,5372.25 7732.63,5356.75C7782.28,5283.43 7787.04,5219.1 7746.82,5161.72C7746.13,5160.74 7738.97,5153.77 7736.45,5151.75C7733.7,5149.55 7724.34,5146.35 7724.16,5146.31C7678.59,5134.97 7656.74,5183.29 7627.36,5184.8C7598.89,5186.26 7564.39,5132.03 7518.95,5154.61C7484.34,5199.4 7469.79,5273.48 7535.91,5371.68L7535.16,5371.71C7544.04,5385.14 7549.21,5401.23 7549.21,5418.52C7549.21,5465.46 7511.1,5503.58 7464.15,5503.58C7417.21,5503.58 7379.1,5465.46 7379.1,5418.52C7379.1,5403.24 7383.13,5388.9 7390.19,5376.51L7390.1,5376.51C7390.28,5376.25 7390.46,5375.99 7390.64,5375.73C7392.84,5371.96 7395.33,5368.37 7398.06,5364.99C7457.74,5278.21 7464.65,5252.89 7390.1,5133.49C7390.1,5133.49 7390.2,5133.5 7390.4,5133.52Z" style="fill:white;"/>
                </g>
            </g>
        </g>
    </g>
</svg>
